<?xml version="1.0" encoding="utf-8"?>
<!-- Generator: Adobe Illustrator 25.4.1, SVG Export Plug-In . SVG Version: 6.00 Build 0)  -->
<svg version="1.0" id="Layer_1" xmlns="http://www.w3.org/2000/svg" xmlns:xlink="http://www.w3.org/1999/xlink" x="0px" y="0px"
	 width="489px" height="88px" viewBox="0 0 489 88" style="enable-background:new 0 0 489 88;" xml:space="preserve">
<style type="text/css">
	.st0{fill:#6C63F3;}
</style>
<path class="st0" d="M417.8,62c-6.2,0-10.2-4.9-10.2-12.1s3.9-12.1,10.2-12.1c4.9,0,7.9,3.6,8.9,7.5h13.1c-0.7-9.5-8.2-19-22-19
	c-15.1,0-24,10.2-24,23.6c0,13.1,8.9,23.6,24,23.6c14.1,0,21.7-9.8,22-19.7h-13.1C426,58.1,423,62,417.8,62z M308.8,85.7V71.9
	c0-1.3-0.3-2.6-1-3.9l-1.3-3l3-1.6l1,2c2.3,4.9,7.5,7.9,12.8,7.9c12.1,0,19.7-10.2,19.7-23.6c0-13.1-7.2-23.6-19.7-23.6
	c-5.3,0-10.5,3-12.8,7.9l-1,2l-3-1.6l1.3-3c0.7-1.3,1-2.3,1-3v-0.3h-13.1V86h13.1V85.7z M456.8,45.3h19c-0.3-5.3-3.9-8.5-9.2-8.5
	C460.1,37.1,457.8,40.4,456.8,45.3z M488.7,53.5h-32.5c1,5.6,4.6,9.5,10.2,9.5c4.3,0,6.9-2,7.9-5.3H488c-1.6,8.5-8.9,16.1-21.7,16.1
	c-15.4,0-23.6-10.8-23.6-23.6s8.5-23.6,23.6-23.6c11.5,0,22.6,7.9,22.6,22.3C489,49.9,489,52.2,488.7,53.5z M365.9,64.3
	c-3.6,0.7-7.2-1-7.2-4.6c0-3.9,3-5.3,5.9-5.6c6.2-0.7,9.5-1,11.5-3.3C376.1,59.7,369.9,63.3,365.9,64.3z M368.9,26.6
	c-9.8,0-21,4.3-22.3,16.1h13.1c0.7-3.3,2.6-6.2,8.9-6.2c6.2,0,7.5,3.3,7.5,5.6c0,3.9-5.6,3.3-13.5,3.9c-9.5,0.7-17.4,4.3-17.4,14.4
	c0,7.2,6.6,13.1,15.4,13.1c6.6,0,11.8-2.6,14.1-7.5l0.7-1.3l3,1.6l-1.6,3.6c-0.3,1-0.7,1.6-0.7,2v0.3h13.5V47.6
	C389.6,29.9,379.4,26.6,368.9,26.6z M319.3,62c-6.6,0-10.5-5.6-10.5-12.1s3.9-12.1,10.5-12.1c6.6,0,9.8,5.6,9.8,12.1
	S326.2,62,319.3,62z M230.1,34.1l-1,2l-3-1.6l1.3-3c0.7-1.3,1-2.6,1-3.6l0,0h-13.1v44.6h13.5V54.8c0-10.8,3.6-15.4,15.1-15.1V27.2
	C236,27.2,232.4,29.2,230.1,34.1z M195.3,27.9v18.1c0,10.5-4.9,16.4-10.2,16.4c-4.6,0-6.6-2.3-6.6-10.8V27.9h-13.1v26.9
	c0,12.8,6.2,19,15.8,19c6.2,0,10.8-3.6,12.8-7.9l1-2l3,1.6l-1.3,3c-0.7,1.3-1,2.3-1,3v1h13.1V27.9H195.3z M278,49.9
	c0-6.6-3.3-12.1-10.2-12.1c-6.6,0-10.2,5.6-10.2,12.1S260.9,62,267.8,62S278,56.8,278,49.9z M291.8,49.9c0,13.5-8.9,23.6-24,23.6
	c-15.1,0-24-10.2-24-23.6s8.9-23.6,24-23.6C282.9,26.3,291.8,36.8,291.8,49.9z M130,25.3v11.8h24.9v11.2H130v11.8h30.2v12.1h-44.3
	V13.1h44.6v12.1H130z M71.2,49.6l-22.6,4.3l-2-4.6l19-13.1L46.6,23l2-4.6l22.6,4.3L67,0H0v71.5h67.3L71.2,49.6z"/>
</svg>
