<?xml version="1.0" encoding="utf-8"?>
<!-- Generator: Adobe Illustrator 24.1.0, SVG Export Plug-In . SVG Version: 6.00 Build 0)  -->
<svg version="1.1" id="Ebene_1" xmlns="http://www.w3.org/2000/svg" xmlns:xlink="http://www.w3.org/1999/xlink" x="0px" y="0px"
	 viewBox="0 0 487.6 231.2" style="enable-background:new 0 0 487.6 231.2;" xml:space="preserve">
<style type="text/css">
	.st0{fill:#010202;}
</style>
<path class="st0" d="M389.5,184.6c30.7,0,45.8-11.2,49.4-34.2c1.2-7.8,2.2-17,2.2-36.9c0-18.2,0-26.5-1.9-35.2
	c-4-18.7-19.2-31.7-49.7-31.7s-45.7,13-49.7,31.7c-1.9,8.8-1.9,17-1.9,35.2c0,19.9,1,29.1,2.2,36.9
	C343.7,173.4,358.7,184.6,389.5,184.6z M389.5,149.6c-3.5,0-4.6-2-4.9-4.9c-1-6.7-1.3-16.3-1.3-29.2c0-11.8,0.2-22.8,0.8-27.1
	c0.7-3.9,1.2-6.6,5.4-6.6c4.2,0,4.7,2.7,5.4,6.6c0.7,4.4,0.8,15.3,0.8,27.1c0,12.8-0.3,22.4-1.3,29.2
	C394,147.6,393,149.6,389.5,149.6z"/>
<path class="st0" d="M142.9,48.6h-31.5c-2.7,0-5,2.1-5.2,4.8l-6.6,79.9c-0.1,1.1-1.6,1.1-1.7,0l-6.6-79.9c-0.3-2.7-2.5-4.8-5.2-4.8
	h-32c-4.4,0-7.7,4-7,8.3l21,120.3c0.6,3.4,3.5,5.9,7,5.9h44.5c3.4,0,6.3-2.4,7-5.7l23.4-120.3C150.7,52.7,147.3,48.6,142.9,48.6z"/>
<path class="st0" d="M233.2,146.5h-33.2c-0.9,0-1.6-0.7-1.6-1.6v-10.2c0-0.9,0.7-1.6,1.6-1.6h29.8c3.9,0,7.1-3.2,7.1-7.1v-21.2
	c0-3.9-3.2-7.1-7.1-7.1h-29.8c-0.9,0-1.6-0.7-1.6-1.6v-8.7c0-0.9,0.7-1.6,1.6-1.6h31.8c3.9,0,7.1-3.2,7.1-7.1V55.7
	c0-3.9-3.2-7.1-7.1-7.1h-70.1c-3.9,0-7.1,3.2-7.1,7.1V176c0,3.9,3.2,7.1,7.1,7.1h71.5c3.9,0,7.1-3.2,7.1-7.1v-22.4
	C240.3,149.7,237.1,146.5,233.2,146.5z"/>
<path class="st0" d="M328.1,48.4h-78.3c-2.9,0-5.3,2.4-5.3,5.3V79c0,3.9,3.2,7.1,7.1,7.1h14.3c0.9,0,1.6,0.7,1.6,1.6v88.1
	c0,3.9,3.2,7.1,7.1,7.1H305c3.9,0,7.1-3.2,7.1-7.1V87.7c0-0.9,0.7-1.6,1.6-1.6h14.4c3.9,0,7.1-3.2,7.1-7.1V55.5
	C335.1,51.6,332,48.4,328.1,48.4z"/>
</svg>
